<?xml version="1.0" encoding="utf-8"?>
<!-- Generator: Adobe Illustrator 24.0.0, SVG Export Plug-In . SVG Version: 6.00 Build 0)  -->
<svg version="1.1" xmlns="http://www.w3.org/2000/svg" xmlns:xlink="http://www.w3.org/1999/xlink" x="0px" y="0px"
	 viewBox="0 0 221.3 207.8" style="enable-background:new 0 0 221.3 207.8;" xml:space="preserve">
<style type="text/css">
	.st0{fill:#FF840D;}
</style>
<g id="Background">
</g>
<g id="Objects">
	<g>
		<g>
			<path class="st0" d="M80.6,31.7c3.9-6,7.4-12,10.3-17.9H80.6V31.7z"/>
			<path class="st0" d="M39,13.8H17.9v84c7-5.1,14.1-11,21.1-17.5V13.8z"/>
		</g>
		<g>
			<path class="st0" d="M39,80.3c-7,6.5-14.1,12.4-21.1,17.5v0.8c0,16.3,4.9,31.4,13.4,44.3c2.5-1.3,5.1-2.7,7.7-4.3V80.3z"/>
			<path class="st0" d="M80.6,75.3h26.1c15-20.1,25.8-40.9,27.3-58c-8.1-2.3-16.8-3.5-25.7-3.5H90.9c-2.9,5.9-6.4,11.9-10.3,17.9
				V75.3z"/>
		</g>
		<g>
			<path class="st0" d="M80.6,114.3V166c18.5-12.5,38.6-31.4,54.9-51.7H80.6z"/>
			<path class="st0" d="M136.1,75.3V17.9c-0.7-0.2-1.4-0.4-2.1-0.6c-1.5,17.1-12.3,38-27.3,58H136.1z"/>
			<path class="st0" d="M39,138.6c-2.6,1.6-5.2,3-7.7,4.3c2.3,3.5,4.9,6.8,7.7,10V138.6z"/>
		</g>
		<g>
			<path class="st0" d="M177.7,44.2v91.7c9.3-12.9,16.8-26.1,21.1-38.3C198.5,77.3,190.6,58.7,177.7,44.2z"/>
			<path class="st0" d="M136.1,114.3h-0.6c-16.3,20.3-36.4,39.1-54.9,51.7v13.2c8.7,2.6,18.1,4.1,27.7,4.1H134
				c0.7-0.6,1.4-1.2,2.1-1.8V114.3z"/>
		</g>
		<g>
			<path class="st0" d="M198.7,97.7c-4.3,12.2-11.7,25.3-21.1,38.3v47.3h21.1V98.5C198.8,98.2,198.7,97.9,198.7,97.7z"/>
			<path class="st0" d="M136.1,181.4c-0.7,0.6-1.4,1.2-2.1,1.8h2.1V181.4z"/>
		</g>
	</g>
</g>
</svg>
